<?xml version="1.0" encoding="utf-8"?>
<!-- Generator: Adobe Illustrator 24.0.1, SVG Export Plug-In . SVG Version: 6.00 Build 0)  -->
<svg version="1.2" baseProfile="tiny" id="Layer_1" xmlns="http://www.w3.org/2000/svg" xmlns:xlink="http://www.w3.org/1999/xlink"
	 x="0px" y="0px" viewBox="0 0 512 512" xml:space="preserve">
<g>
	<path d="M242.9,277.9c22-48,43.5-96.2,65.2-144.4c1.3-2.8,2.4-5.7,3.8-9.1c-6.2,0-11.7-0.1-17.2,0c-19.5,0.4-33.6,9-41.6,27.1
		c-17.3,39.2-34.3,78.5-51.9,117.6c-14.9,33.1-48,50-84.4,43.7c-34.9-6-59.8-33.9-62.7-69.8c-2.6-33.4,16-64.3,46.5-77.1
		c30.8-13,66.3-5,88.2,20c4.4,5.1,8.1,10.9,12.2,16.6c0.6-0.6,1.3-1.1,1.6-1.8c5.3-12,10.7-24,15.5-36.2c0.8-2.1-0.4-6-2.1-7.8
		c-31-32.5-68.8-43.6-112.2-33.8c-46.8,10.6-83.5,51.6-89,97.9C8.2,275.4,34,317.3,78,341.9c21.7,12.1,45.5,14.2,69.7,11.8
		c24.1-2.3,45.1-11.7,62.4-29C223.9,311,234.9,295.4,242.9,277.9z"/>
	<path d="M350.6,349.7c5.3,0,9.8,0.1,14.3,0c20.2-0.4,34.7-9.2,43-28.1c22.2-50.1,44.8-100,67.2-149.9c6.9-15.4,13.8-30.8,21.2-47.2
		c-6,0-10.9,0-15.9,0c-20.5,0-35.3,9-43.6,28c-28,63.8-56,127.6-84,191.5C352,345.6,351.5,347.5,350.6,349.7z"/>
	<path d="M259.1,349.7c5.1,0,9.7,0.1,14.3,0c20-0.4,34.4-9.2,42.7-27.9c27.4-61.2,54.9-122.4,82.3-183.6c1.9-4.3,3.8-8.7,6-13.9
		c-6.3,0-11.7-0.1-17.1,0c-19.4,0.4-33.6,8.8-41.6,27c-28.5,64.9-57,129.8-85.5,194.7C259.7,347.1,259.6,348.2,259.1,349.7z"/>
	<path d="M421.3,371.3c-0.5,1.4-1.1,2.8-1.8,4.6c-3.7-5.1-8.7-6.1-13.6-4c-4.4,1.9-8.2,5.2-12,7.8c0.7-2.7,1.5-5.9,2.2-9.1
		c1.8-8.3-0.4-11.5-9.6-13.3c-1.8,14.1-3.8,28.1-13.4,40.6c-0.4-2.5-0.9-4.3-1-6c-0.1-8.1,0-16.3-0.1-24.4c-0.1-8-3.9-11-12.1-9.7
		c-4.4,26.4-7.1,34.9-13.3,39.7c-0.3-2.3-0.7-4.5-0.7-6.6c0-7.8,0.2-15.6,0-23.4c-0.2-8-4.1-11-12.2-9.7c0.4,3.3,1,6.6,1.2,9.9
		c0.7,9.4,1.3,18.9,2,28.3c0.4,4.9,2.3,8.7,7.6,9.8c5,1,8.3-1.6,10.5-5.7c2.5-4.7,4.6-9.5,7.3-15.1c0.3,4.5,0.3,8.2,0.9,11.8
		c1.3,8.6,10.1,12.4,17.2,7.3c2.2-1.6,4-4,5.4-6.4c2.4-4.1,4.3-8.4,6.8-13.4c-2.1,11,0,18.2,5.9,20.7c8.8,3.8,12.5-3,16.7-8.9
		c1.6,9.9,4.1,11.7,10.9,9.4c1.5-7.9,2.8-15.1,4.2-22.3C432.2,374.2,430.5,372,421.3,371.3z M418.3,382.2c-1.8,4.9-4.6,9.5-7.5,13.8
		c-1.6,2.3-5.3,2.6-6.1-0.2c-1.1-3.8-1.2-8.3-0.3-12.2c0.9-4,4.2-6.7,8.9-6.8C416.7,377,419.6,378.7,418.3,382.2z"/>
	<path d="M317.5,355.9c-13.6-6.4-24.1-1.2-27.5,13.2c-0.3,1.3-1.2,3.3-2,3.4c-3,0.3-6.1,2.9-9.4-0.1c-1.4-1.2-4-1-6.3-1.5
		c-0.5,2.9-0.5,5.5-1.4,7.7c-2.2,5.5-4.6,10.9-7.5,16c-0.7,1.2-3.4,1.2-5.2,1.8c-0.1-1.7-0.6-3.4-0.2-5c0.8-3.6,2.5-7,2.7-10.6
		c0.2-2.9-0.5-6.9-2.3-8.5c-2-1.7-5.9-1-8.1-1.3c-0.9,6-1.5,10.7-2.3,15.3c-0.5,2.9-1.5,5.8-2,8.7c-0.6,4.3,0.7,7.9,5,9.8
		c4.3,1.9,7.8,0.6,10.7-2.7c1.7-2,3.2-4,5-6.3c1.3,9.7,4.6,12,10.9,9.1c1.5-8.2,3.2-15.6,4.2-23.1c0.6-4.5,2.8-4.4,6.3-3.3
		c-1.3,5.9-3,11.5-3.7,17.2c-0.3,2.8,0.3,6.9,2.2,8.5c2,1.7,5.9,1.1,8.7,1.4c0.5-5.5,0.6-9.8,1.3-14.1c0.7-4.2,1.8-8.4,2.8-12.8
		c2.6-0.2,5-0.3,7.6-0.5c-1.4,6.4-3.1,12.2-3.8,18.1c-0.3,2.6,0.6,6.6,2.4,7.9c2.2,1.6,5.9,1,8.3,1.2c0.6-5.7,0.9-10.1,1.5-14.5
		c0.7-4.6,2.1-9.1,2.5-13.7c0.4-4.2-6.2-7.7-10.1-5.9c-2,0.9-4.4,1.3-6.7,1.9c-0.2-9,1.8-12.9,6.7-13.7c0.4,1.4,0.4,3.4,1.4,4
		c2,1.4,4.7,3.2,6.7,2.7c2-0.5,4.2-3.2,4.7-5.4C321.1,359.7,319.1,356.7,317.5,355.9z"/>
	<path d="M485.7,358.3c-1,5.8-2.1,11.5-3.3,17.9c-9.3-9.2-17.1-4.7-24.9,2.1c-0.5-7.3-6.5-5.9-10.4-7.7
		c-0.4-12.2-0.7-12.6-10.3-13.3c-0.2,3.3-0.1,6.6-0.7,9.8c-1.8,9.6-4,19.2-5.7,28.8c-0.4,2.2-0.6,5.4,0.6,6.6
		c1.8,1.8,4.9,2.7,7.6,3.1c1.2,0.2,2.8-1.8,4.2-2.8c2.6,3.5,5.4,4.1,11.1,1.8c0-2.4,0-4.8,0-8c6.2,12.3,12.6,12.1,23.4-0.1
		c1.2,10.4,5.1,10.5,11.8,8.3c0.4-4.7,0.6-9.4,1.4-13.9c1.3-7.4,3-14.6,4.4-21.9C496.5,360.5,494.6,358.4,485.7,358.3z M479.7,383.6
		c-1.8,4.1-3.9,8-6.4,11.8c-1.7,2.5-4.4,3.4-6.7,0.6c-3.1-3.8-2.3-8.2-0.5-12.3c1.6-3.8,4.1-6.9,7.9-6.9
		C479.4,376.9,481.5,379.6,479.7,383.6z"/>
	<path d="M247.6,375.2c-0.7-12.5-10.9-19.9-23.2-17.7c-13.4,2.3-22.2,13.5-22.1,28.3c0,13.4,9.5,21.5,22.8,19.7
		C242.3,403.2,248.3,387.9,247.6,375.2z M235.3,377.2c0,6.3-1.5,12.4-5.9,16.9c-2.3,2.3-6.1,4.3-9.2,4.3c-4,0-5-4.3-5.4-7.8
		c-1-7.7,0.9-14.8,5.5-21c2.4-3.2,5.5-5.8,9.7-4.6c4.4,1.3,5,5.3,5.3,9.2C235.4,375.2,235.3,376.2,235.3,377.2z"/>
	<path d="M454.1,355.2c-3.2-0.4-6.6,2.9-6.5,6.2c0.2,3.9,3.1,5.1,6,5.6c3.8,0,6.8-3.1,6.6-6.5C460,356.8,457.2,355.5,454.1,355.2z"
		/>
</g>
</svg>
